<svg id="body" xmlns="http://www.w3.org/2000/svg" viewBox="0 0 264.79 323.79"><defs><style>.cls-1{fill:#7d5340;stroke:#54372d;stroke-linecap:round;stroke-miterlimit:10;stroke-width:4.45px;}.cls-2{fill:#fff4e9;}</style></defs><title>body</title><path class="cls-1" d="M617,136.66c-4.77-4.3-12.29-9.95-20.09-12a17,17,0,0,0-20.52,11.19l-0.07.23c-2,6.59.5,17.45,4.84,27.53a4.45,4.45,0,0,0,7.29,1.4c5.5-5.57,15.67-14.85,27.61-20.9A4.6,4.6,0,0,0,617,136.66Z" transform="translate(-545.66 -121.89)"/><path class="cls-1" d="M739.16,136.66c4.77-4.3,12.29-9.95,20.09-12a17,17,0,0,1,20.52,11.19l0.07,0.23c2,6.59-.5,17.45-4.84,27.53a4.45,4.45,0,0,1-7.29,1.4c-5.5-5.57-15.67-14.85-27.61-20.9A4.6,4.6,0,0,1,739.16,136.66Z" transform="translate(-545.66 -121.89)"/><path class="cls-1" d="M786.52,273.45A95,95,0,0,0,794.7,230c0-39.3-10.17-53.27-18.6-64.27a67.18,67.18,0,0,0-9-9.64,129.13,129.13,0,0,0-25.7-17.42c-16.36-9.5-46.22-12.2-58.18-12.92a85.8,85.8,0,0,0-10.31,0c-12,.72-41.81,3.42-58.18,12.92A129.13,129.13,0,0,0,589,156a67.18,67.18,0,0,0-9,9.64c-8.43,11-18.6,25-18.6,64.27a95,95,0,0,0,8.18,43.5c-3.12,4.71-35.94,56.33-14.46,103.69l-6.59,17.16a189.3,189.3,0,0,0,127.51,49.14l2,0,2,0a189.3,189.3,0,0,0,127.51-49.14L801,377.14C822.46,329.78,789.64,278.17,786.52,273.45Z" transform="translate(-545.66 -121.89)"/><path class="cls-2" d="M678.06,312.7c-9.54,0-17.29,13.8-17.29,30.76s7.76,30.76,17.29,30.76,17.29-13.8,17.29-30.76S687.59,312.7,678.06,312.7Z" transform="translate(-545.66 -121.89)"/><path class="cls-2" d="M634.71,312.7c-7.33,0-13.3,10.55-13.3,23.51a42,42,0,0,0,.24,4.52c1.2,11,6.69,19,13.05,19,7.33,0,13.3-10.55,13.3-23.51S642,312.7,634.71,312.7Z" transform="translate(-545.66 -121.89)"/><path class="cls-2" d="M721.41,312.7c-7.33,0-13.3,10.55-13.3,23.51s6,23.51,13.3,23.51c6.36,0,11.85-8,13.05-19a42,42,0,0,0,.24-4.52C734.7,323.24,728.74,312.7,721.41,312.7Z" transform="translate(-545.66 -121.89)"/></svg>