<svg id="레이어_11" data-name="레이어 11" xmlns="http://www.w3.org/2000/svg" viewBox="0 0 264.79 323.79">
    <defs><style>.cls-1,.cls-3{fill:#7d5340;stroke-linecap:round;}.cls-1,.cls-3,.cls-4,.cls-6{stroke:#54372d;stroke-miterlimit:10;}.cls-1{stroke-width:4.45px;}.cls-2,.cls-4{fill:#fff4e9;}.cls-3{stroke-width:4.19px;}.cls-4,.cls-6{stroke-width:4px;}.cls-5{fill:#f2982c;}.cls-6,.cls-8{fill:#fff;}.cls-7{fill:#54372d;}</style>
    </defs>
    <title>img</title>
    <path class="cls-1" d="M342-340.34c-4.77-4.3-12.29-9.95-20.09-12a17,17,0,0,0-20.52,11.19l-0.07.23c-2,6.59.5,17.45,4.84,27.53a4.45,4.45,0,0,0,7.29,1.4c5.5-5.57,15.67-14.85,27.61-20.9A4.6,4.6,0,0,0,342-340.34Z" transform="translate(-270.66 355.11)"/>
    <path class="cls-1" d="M464.16-340.34c4.77-4.3,12.29-9.95,20.09-12a17,17,0,0,1,20.52,11.19l0.07,0.23c2,6.59-.5,17.45-4.84,27.53a4.45,4.45,0,0,1-7.29,1.4c-5.5-5.57-15.67-14.85-27.61-20.9A4.6,4.6,0,0,1,464.16-340.34Z" transform="translate(-270.66 355.11)"/>
    <path class="cls-1" d="M511.52-203.55A95,95,0,0,0,519.7-247c0-39.3-10.17-53.27-18.6-64.27a67.18,67.18,0,0,0-9-9.64,129.13,129.13,0,0,0-25.7-17.42c-16.36-9.5-46.22-12.2-58.18-12.92a85.8,85.8,0,0,0-10.31,0c-12,.72-41.81,3.42-58.18,12.92A129.13,129.13,0,0,0,314-321a67.18,67.18,0,0,0-9,9.64c-8.43,11-18.6,25-18.6,64.27a95,95,0,0,0,8.18,43.5c-3.12,4.71-35.94,56.33-14.46,103.69l-6.59,17.16A189.3,189.3,0,0,0,401.06-33.55l2,0,2,0A189.3,189.3,0,0,0,532.57-82.69L526-99.86C547.46-147.22,514.64-198.83,511.52-203.55Z" transform="translate(-270.66 355.11)"/>
    <path class="cls-2" d="M403.06-164.3c-9.54,0-17.29,13.8-17.29,30.76s7.76,30.76,17.29,30.76,17.29-13.8,17.29-30.76S412.59-164.3,403.06-164.3Z" transform="translate(-270.66 355.11)"/>
    <path class="cls-2" d="M359.71-164.3c-7.33,0-13.3,10.55-13.3,23.51a42,42,0,0,0,.24,4.52c1.2,11,6.69,19,13.05,19,7.33,0,13.3-10.55,13.3-23.51S367-164.3,359.71-164.3Z" transform="translate(-270.66 355.11)"/>
    <path class="cls-2" d="M446.41-164.3c-7.33,0-13.3,10.55-13.3,23.51s6,23.51,13.3,23.51c6.36,0,11.85-8,13.05-19a42,42,0,0,0,.24-4.52C459.7-153.76,453.74-164.3,446.41-164.3Z" transform="translate(-270.66 355.11)"/>
    <path class="cls-3" d="M318-149.19L353-132.43a6,6,0,0,0,5.1,0l27.06-12.76s12.76-6.92,19.08,1c3.11,4.65,2.94,10.35-2.45,19s-19.77,31.54-40,41.15c-4.71,2.25-26.74,13.83-52.51,2.57-4.58-2-20.72-11.25-28.74-19.73" transform="translate(-270.66 355.11)"/>
    <path class="cls-3" d="M488.15-149.19l-35.08,16.76a6,6,0,0,1-5.1,0l-27.06-12.76s-12.76-6.92-19.08,1c-3.11,4.65-2.94,10.35,2.45,19s19.77,31.54,40,41.15C449-81.79,471-70.21,496.77-81.48c4.58-2,20.72-11.25,28.74-19.73" transform="translate(-270.66 355.11)"/>
    <path class="cls-4" d="M503.19-250.51c0-53.8-43.64-62.73-44-62.8-33.87-9.4-52.58,9.93-56.08,14-3.49-4.09-22.19-23.42-56-14-0.44.08-44.08,9-44.08,62.78,0,0.26-1.94,26.18,17.56,47.37,17.06,18.55,44.82,28,82.58,28s65.44-9.42,82.51-28C504.81-224,503.27-249.44,503.19-250.51Z" transform="translate(-270.66 355.11)"/>
    <polygon class="cls-5" points="132.41 120.82 121.54 134.41 132.41 148 143.28 134.41 132.41 120.82"/>
    <circle class="cls-6" cx="82.68" cy="110.77" r="35.21"/>
    <path class="cls-7" d="M353.34-264.27a20.65,20.65,0,0,0-20.62,20.63A20.65,20.65,0,0,0,353.34-223,20.65,20.65,0,0,0,374-243.64,20.65,20.65,0,0,0,353.34-264.27Z" transform="translate(-270.66 355.11)"/>
    <circle class="cls-8" cx="82.68" cy="119.53" r="6.94"/>
    <circle class="cls-6" cx="182.68" cy="110.77" r="35.21"/>
    <path class="cls-7" d="M453.34-264.27a20.65,20.65,0,0,0-20.62,20.63A20.65,20.65,0,0,0,453.34-223,20.65,20.65,0,0,0,474-243.64,20.65,20.65,0,0,0,453.34-264.27Z" transform="translate(-270.66 355.11)"/>
    <circle class="cls-8" cx="182.68" cy="119.53" r="6.94"/>
    </svg>