<svg id="img" xmlns="http://www.w3.org/2000/svg" viewBox="0 0 380 380"><defs><style>.cls-1{fill:#d2eff7;}.cls-2,.cls-5{fill:#7d5340;}.cls-3{fill:#54372d;}.cls-4,.cls-6{fill:#fff4e9;}.cls-5,.cls-6,.cls-8{stroke:#54372d;stroke-miterlimit:10;}.cls-5{stroke-linecap:round;stroke-width:4.19px;}.cls-6,.cls-8{stroke-width:4px;}.cls-7{fill:#f2982c;}.cls-8,.cls-9{fill:#fff;}</style></defs><title>img_2</title><circle class="cls-1" cx="190" cy="190" r="190"/><path class="cls-2" d="M310.23-308.86a2.24,2.24,0,0,1-2.07-1.39c-4.66-10.85-6.44-20.57-4.76-26l0.06-.2a14.72,14.72,0,0,1,14.07-10.21,14.91,14.91,0,0,1,3.77.49c7.87,2.06,15.38,8.08,19.16,11.48a2.35,2.35,0,0,1,.75,2.09,2.25,2.25,0,0,1-1.21,1.74c-12.42,6.3-23,16.06-28.19,21.32a2.18,2.18,0,0,1-1.58.68h0Z" transform="translate(-213.06 410.7)"/><path class="cls-3" d="M317.54-344.43a12.69,12.69,0,0,1,3.21.41c7.41,1.94,14.6,7.71,18.23,11a0.25,0.25,0,0,1,0,.19c-12.7,6.44-23.48,16.39-28.77,21.76l0,0c-4.39-10.22-6.19-19.59-4.68-24.45l0.06-.18a12.5,12.5,0,0,1,11.95-8.66m0-4.45a17,17,0,0,0-16.19,11.75l-0.07.23c-2,6.59.5,17.45,4.84,27.53a4.47,4.47,0,0,0,4.12,2.74A4.42,4.42,0,0,0,313.4-308c5.5-5.57,15.67-14.85,27.61-20.9a4.6,4.6,0,0,0,.94-7.47c-4.77-4.3-12.29-9.95-20.09-12a17.13,17.13,0,0,0-4.33-.56h0Z" transform="translate(-213.06 410.7)"/><path class="cls-2" d="M495.88-308.86a2.18,2.18,0,0,1-1.58-.68c-5.2-5.26-15.77-15-28.19-21.32a2.24,2.24,0,0,1-1.21-1.74,2.34,2.34,0,0,1,.75-2.09c3.78-3.41,11.29-9.43,19.16-11.48a14.91,14.91,0,0,1,3.77-.49,14.72,14.72,0,0,1,14.07,10.21l0.06,0.2c1.69,5.43-.09,15.15-4.76,26A2.24,2.24,0,0,1,495.88-308.86Z" transform="translate(-213.06 410.7)"/><path class="cls-3" d="M488.58-344.43h0a12.5,12.5,0,0,1,11.95,8.66l0.06,0.19c1.51,4.86-.28,14.23-4.68,24.45l0,0h0c-5.29-5.36-16.06-15.3-28.75-21.73a0.21,0.21,0,0,1,0-.21c3.63-3.27,10.82-9,18.23-11a12.7,12.7,0,0,1,3.21-.41m0-4.45a17.13,17.13,0,0,0-4.33.56c-7.8,2-15.31,7.68-20.09,12a4.6,4.6,0,0,0,.94,7.47c11.94,6.05,22.11,15.33,27.61,20.9a4.42,4.42,0,0,0,3.17,1.34,4.47,4.47,0,0,0,4.12-2.74c4.34-10.09,6.89-20.94,4.84-27.53l-0.07-.23a17,17,0,0,0-16.19-11.75h0Z" transform="translate(-213.06 410.7)"/><path class="cls-2" d="M403.06-32.93a187.21,187.21,0,0,1-126-48.6l5.53-14.4-0.39-.85c-20.9-46.08,10.62-96,14.29-101.54l0.68-1-0.5-1.12a91.86,91.86,0,0,1-7.82-42.37l0.19-.11V-243c0-39.25,10.3-52.93,18-62.92a64.5,64.5,0,0,1,8.62-9.32,126.49,126.49,0,0,1,25.21-17.12l0.07-.05c15.93-9.25,45.29-11.91,57.18-12.62,1.67-.1,3.35-0.15,5-0.15s3.35,0.05,5,.15c11.89,0.72,41.26,3.38,57.19,12.63l0.1,0.05a127.08,127.08,0,0,1,25.25,17.12A63.61,63.61,0,0,1,499.1-306C506.75-296,517-282.3,517-243v0.11l0.25,0.11a92.4,92.4,0,0,1-7.88,42.37l-0.44,1.12,0.71,1c3.66,5.54,35.2,55.46,14.3,101.54l-0.38.85,5.53,14.4A187.2,187.2,0,0,1,403.06-32.93Z" transform="translate(-213.06 410.7)"/><path class="cls-3" d="M403.06-343c1.62,0,3.27,0,4.89.15,35.22,2.12,51,9.33,56.21,12.33l0.1,0.06,0.1,0.05a124.8,124.8,0,0,1,24.8,16.81,62.92,62.92,0,0,1,8.41,9c7.88,10.28,17.68,23.07,17.68,61.56v0.22l0,0.21a91.41,91.41,0,0,1-7.81,41.25l-1,2.24,1.35,2a143.87,143.87,0,0,1,15.91,34.69c7.34,24.12,6.74,45.89-1.79,64.7L521.15-96l0.67,1.74,4.65,12.1a185,185,0,0,1-123.41,47,185,185,0,0,1-123.41-47l4.65-12.1L285-96l-0.77-1.7c-8.53-18.81-9.14-40.58-1.79-64.7a143.87,143.87,0,0,1,15.91-34.69l1.35-2-1-2.24a90.83,90.83,0,0,1-7.74-41.24l0.09-.22V-243c0-38.49,9.74-51.28,17.61-61.56a62.71,62.71,0,0,1,8.38-9,124.6,124.6,0,0,1,24.79-16.81l0.09-.05,0.09-.06c5.17-3,21-10.21,56.21-12.33,1.62-.1,3.26-0.15,4.89-0.15m0-4.45q-2.58,0-5.16.16c-12,.72-41.81,3.42-58.18,12.92A129.13,129.13,0,0,0,314-317a67.19,67.19,0,0,0-9,9.64c-8.43,11-18.6,25-18.6,64.27a95,95,0,0,0,8.18,43.5c-3.12,4.71-35.94,56.33-14.46,103.69L274.4-80.91A189.31,189.31,0,0,0,403.06-30.7a189.31,189.31,0,0,0,128.66-50.2L526-95.86c21.48-47.36-11.34-99-14.46-103.69A95,95,0,0,0,519.7-243c0-39.3-10.17-53.27-18.6-64.27a67.19,67.19,0,0,0-9-9.64,129.13,129.13,0,0,0-25.7-17.42c-16.36-9.5-46.22-12.2-58.18-12.92q-2.58-.16-5.16-0.16h0Z" transform="translate(-213.06 410.7)"/><path class="cls-4" d="M403.06-160.3c-9.54,0-17.29,13.8-17.29,30.76s7.76,30.76,17.29,30.76,17.29-13.8,17.29-30.76S412.59-160.3,403.06-160.3Z" transform="translate(-213.06 410.7)"/><path class="cls-4" d="M359.71-160.3c-7.33,0-13.3,10.55-13.3,23.51a42,42,0,0,0,.24,4.52c1.2,11,6.69,19,13.05,19,7.33,0,13.3-10.55,13.3-23.51S367-160.3,359.71-160.3Z" transform="translate(-213.06 410.7)"/><path class="cls-4" d="M446.41-160.3c-7.33,0-13.3,10.55-13.3,23.51s6,23.51,13.3,23.51c6.36,0,11.85-8,13.05-19a42,42,0,0,0,.24-4.52C459.7-149.76,453.74-160.3,446.41-160.3Z" transform="translate(-213.06 410.7)"/><path class="cls-5" d="M318-149.19L353-132.43a6,6,0,0,0,5.1,0l27.06-12.76s12.76-6.92,19.08,1c3.11,4.65,2.94,10.35-2.45,19s-19.77,31.54-40,41.15c-4.71,2.25-26.74,13.83-52.51,2.57-4.58-2-20.72-11.25-28.74-19.73" transform="translate(-213.06 410.7)"/><path class="cls-5" d="M488.15-149.19l-35.08,16.76a6,6,0,0,1-5.1,0l-27.06-12.76s-12.76-6.92-19.08,1c-3.11,4.65-2.94,10.35,2.45,19s19.77,31.54,40,41.15C449-81.79,471-70.21,496.77-81.48c4.58-2,20.72-11.25,28.74-19.73" transform="translate(-213.06 410.7)"/><path class="cls-6" d="M503.19-250.51c0-53.8-43.64-62.73-44-62.8-33.87-9.4-52.58,9.93-56.08,14-3.49-4.09-22.19-23.42-56-14-0.44.08-44.08,9-44.08,62.78,0,0.26-1.94,26.18,17.56,47.37,17.06,18.55,44.82,28,82.58,28s65.44-9.42,82.51-28C504.81-224,503.27-249.44,503.19-250.51Z" transform="translate(-213.06 410.7)"/><polygon class="cls-7" points="190.02 176.41 179.15 190 190.02 203.59 200.89 190 190.02 176.41"/><circle class="cls-8" cx="140.28" cy="166.36" r="35.21"/><path class="cls-3" d="M353.34-264.27a20.65,20.65,0,0,0-20.62,20.63A20.65,20.65,0,0,0,353.34-223,20.65,20.65,0,0,0,374-243.64,20.65,20.65,0,0,0,353.34-264.27Z" transform="translate(-213.06 410.7)"/><circle class="cls-9" cx="140.28" cy="175.13" r="6.94"/><circle class="cls-8" cx="240.28" cy="166.36" r="35.21"/><path class="cls-3" d="M453.34-264.27a20.65,20.65,0,0,0-20.62,20.63A20.65,20.65,0,0,0,453.34-223,20.65,20.65,0,0,0,474-243.64,20.65,20.65,0,0,0,453.34-264.27Z" transform="translate(-213.06 410.7)"/><circle class="cls-9" cx="240.28" cy="175.13" r="6.94"/></svg>